<svg xmlns="http://www.w3.org/2000/svg" width="20.774" height="33.089" viewBox="0 0 20.774 33.089">
  <g id="_64113" data-name="64113" transform="translate(-79.268)">
    <path id="Path_25" data-name="Path 25" d="M89.679,0h-.047A10.373,10.373,0,0,0,79.268,10.36c0,3.744,1.705,8.686,5.068,14.688a81.645,81.645,0,0,0,5.047,7.891.373.373,0,0,0,.3.15h.01a.373.373,0,0,0,.3-.166c.025-.038,2.535-3.829,5.012-8.465,3.343-6.258,5.037-11,5.037-14.1A10.373,10.373,0,0,0,89.679,0Zm4.784,10.613a4.807,4.807,0,1,1-4.807-4.807A4.813,4.813,0,0,1,94.462,10.613Z" transform="translate(0 0)" fill="#fff"/>
  </g>
</svg>
