<svg xmlns="http://www.w3.org/2000/svg" width="12.556" height="20" viewBox="0 0 12.556 20">
  <g id="_64113" data-name="64113" transform="translate(-79.268)">
    <path id="Path_25" data-name="Path 25" d="M85.56,0h-.029a6.27,6.27,0,0,0-6.264,6.262c0,2.263,1.031,5.25,3.063,8.878a49.348,49.348,0,0,0,3.051,4.77.225.225,0,0,0,.181.091h.006a.226.226,0,0,0,.182-.1c.015-.023,1.532-2.314,3.029-5.117C90.8,11,91.824,8.133,91.824,6.262A6.27,6.27,0,0,0,85.56,0Zm2.891,6.415a2.906,2.906,0,1,1-2.906-2.906A2.909,2.909,0,0,1,88.452,6.415Z" transform="translate(0 0)" fill="#fff"/>
  </g>
</svg>
