<svg id="_64113" data-name="64113" xmlns="http://www.w3.org/2000/svg" width="14.938" height="23.794" viewBox="0 0 14.938 23.794">
  <path id="Path_25" data-name="Path 25" d="M86.754,0H86.72a7.459,7.459,0,0,0-7.452,7.449c0,2.693,1.226,6.246,3.645,10.562a58.7,58.7,0,0,0,3.629,5.675.268.268,0,0,0,.215.108h.007a.268.268,0,0,0,.216-.12c.018-.027,1.823-2.753,3.6-6.087,2.4-4.5,3.622-7.911,3.622-10.137A7.459,7.459,0,0,0,86.754,0Zm3.44,7.631a3.457,3.457,0,1,1-3.457-3.457A3.461,3.461,0,0,1,90.194,7.631Z" transform="translate(-79.268 0)" fill="#fff"/>
</svg>
