<?xml version="1.0" encoding="utf-8"?>
<!-- Generator: Adobe Illustrator 24.1.3, SVG Export Plug-In . SVG Version: 6.00 Build 0)  -->
<svg version="1.1" id="Layer_1" xmlns="http://www.w3.org/2000/svg" xmlns:xlink="http://www.w3.org/1999/xlink" x="0px" y="0px"
	 viewBox="0 0 493.6 235.5" style="enable-background:new 0 0 493.6 235.5;" xml:space="preserve">
<style type="text/css">
	.st0{fill:#FFCC00;}
	.st1{fill:#0000FF;}
	.st2{fill:#FFFFFF;}
	.st3{fill:#000099;}
	.st4{fill:#0000C3;}
	.st5{fill:#C3C3C3;}
	.st6{fill:#DCDCDC;}
	.st7{fill:#999999;}
	.st8{fill:#0000DC;}
	.st9{enable-background:new    ;}
</style>
<ellipse class="st0" cx="242.2" cy="118.5" rx="240.8" ry="117"/>
<ellipse class="st1" cx="251.3" cy="118.5" rx="236.4" ry="102.5"/>
<ellipse class="st2" cx="263.5" cy="118.5" rx="230.1" ry="92"/>
<g>
	<polygon class="st3" points="392.5,133.1 395.8,131.5 414.5,140.9 411.2,142.6 	"/>
	<polygon class="st4" points="392.6,114.4 395.9,112.7 395.8,131.5 392.5,133.1 	"/>
	<polygon class="st5" points="411.2,123.8 414.6,122.1 414.5,140.9 411.2,142.6 	"/>
	<polygon class="st6" points="411.2,123.8 411.2,142.6 392.5,133.1 392.6,114.4 	"/>
	<polygon class="st7" points="392.6,114.4 395.9,112.7 414.6,122.1 411.2,123.8 	"/>
	<polygon class="st3" points="413.8,143.9 417.1,142.2 435.8,151.6 432.5,153.3 	"/>
	<polygon class="st4" points="413.8,125.1 417.2,123.4 417.1,142.2 413.8,143.9 	"/>
	<polygon class="st3" points="392.6,109.8 395.9,108.1 414.6,117.6 411.3,119.3 	"/>
	<polygon class="st4" points="392.6,91.1 396,89.4 395.9,108.1 392.6,109.8 	"/>
	<polygon class="st6" points="432.5,134.6 432.5,153.3 413.8,143.9 413.8,125.1 	"/>
	<polygon class="st7" points="413.8,125.1 417.2,123.4 435.8,132.9 432.5,134.6 	"/>
	<polygon class="st5" points="432.5,134.6 435.8,132.9 435.8,151.6 432.5,153.3 	"/>
	<polygon class="st6" points="411.3,100.5 411.3,119.3 392.6,109.8 392.6,91.1 	"/>
	<polygon class="st5" points="411.3,100.5 414.6,98.8 414.6,117.6 411.3,119.3 	"/>
	<polygon class="st7" points="392.6,91.1 396,89.4 414.6,98.8 411.3,100.5 	"/>
	<polygon class="st3" points="413.9,120.6 417.2,118.9 435.9,128.3 432.5,130 	"/>
	<polygon class="st4" points="413.9,101.8 417.2,100.1 417.2,118.9 413.9,120.6 	"/>
	<polygon class="st6" points="432.6,111.2 432.5,130 413.9,120.6 413.9,101.8 	"/>
	<polygon class="st5" points="432.6,111.2 435.9,109.5 435.9,128.3 432.5,130 	"/>
	<polygon class="st7" points="413.9,101.8 417.2,100.1 435.9,109.5 432.6,111.2 	"/>
	<path class="st8" d="M385.8,80.6l53.6,27.1l-0.2,53.9l-53.6-27.1L385.8,80.6z M432.5,153.3l0.1-18.8l-18.7-9.4l-0.1,18.8
		L432.5,153.3 M432.5,130l0.1-18.8l-18.7-9.4l-0.1,18.8L432.5,130 M411.2,142.6l0.1-18.8l-18.7-9.4l-0.1,18.8L411.2,142.6
		 M411.3,119.3l0.1-18.8l-18.7-9.4l-0.1,18.7L411.3,119.3"/>
	<polygon class="st4" points="439.4,107.7 442.7,106 442.5,159.9 439.2,161.6 	"/>
	<polygon class="st3" points="385.8,80.6 389.1,79 442.7,106 439.4,107.7 	"/>
</g>
<g class="st9">
	<path class="st1" d="M99.9,129.6h-3.1l6.8-30.5l0.2-1.1c0.2-0.7,0.2-1.3,0.2-1.5c0-0.4-0.1-0.7-0.3-1c-0.2-0.3-0.5-0.4-0.9-0.4
		c-0.6,0-1.3,0.3-2,1c-0.8,0.7-1.7,1.8-2.9,3.5c-1.8,2.5-3.7,5.9-5.8,10.3c-1.6,3.5-3,6.8-4.2,10.1c-1.2,3.3-2.1,6.5-2.8,9.7h-2.7
		L90,96.7c0.2-1,0.4-1.8,0.4-2.4c0-0.3-0.1-0.5-0.2-0.8c-0.1-0.2-0.3-0.4-0.4-0.5s-0.4-0.2-0.6-0.2c-1,0-2.3,0.9-3.7,2.8
		c-1.5,1.8-3.2,4.7-5.2,8.6c-1,1.8-1.9,3.6-2.8,5.5c-0.9,1.9-1.7,3.7-2.4,5.4c-0.7,1.7-1.5,3.7-2.3,6.1c-1.3,3.5-2.2,6.3-2.7,8.5
		h-2.7l0.1-0.4l1.4-5.2c0.5-2,0.9-3.7,1.3-5.3c1.7-7.2,3-13.1,3.8-17.7c0.7-3.6,1-6.2,1-7.8c0-1.2-0.2-2.1-0.6-2.7
		c-0.4-0.6-0.9-1-1.6-1c-1.6,0-3.1,2-4.4,6.1c-0.8,2.6-1.4,5.3-1.8,8.3l-2.4-1.5c0.4-2.6,1-5,1.8-7.1c0.9-2.1,1.9-3.8,3-5
		c1.2-1.2,2.4-1.8,3.6-1.8c1.4,0,2.5,0.7,3.3,2.1c0.8,1.4,1.2,3.2,1.2,5.6c0,2-0.2,4.3-0.6,6.8c-0.1,0.7-0.5,2.6-1,5.7l-1.3,6.6
		l0.2-0.6c1.6-4,3.8-8.6,6.8-14c1.9-3.3,3.6-5.8,5.2-7.6c1.6-1.7,3-2.6,4.3-2.6c0.8,0,1.5,0.3,2,0.9c0.5,0.6,0.8,1.4,0.8,2.3
		c0,0.9-0.2,2.3-0.6,4.1l-3.8,16.8c0.3-0.7,0.9-2.2,1.9-4.3c3-6.1,5.5-10.6,7.6-13.3c2.1-2.7,4-4.1,5.8-4.1c0.9,0,1.6,0.3,2.1,0.9
		c0.5,0.6,0.8,1.3,0.8,2.3c0,0.8-0.2,1.9-0.6,3.5L99.9,129.6z"/>
	<path class="st1" d="M121,125c-1.3,1.7-2.6,3-3.8,3.8s-2.6,1.2-4.1,1.2c-1.7,0-3-0.5-4.1-1.6c-1-1.1-1.6-2.5-1.6-4.2
		c0-1.8,0.5-3.7,1.5-5.5c1-1.9,2.3-3.4,3.9-4.7c1.6-1.2,3.1-1.8,4.6-1.8c1,0,1.8,0.3,2.4,0.8c0.6,0.5,0.9,1.2,0.9,2.1
		c0,0.8-0.3,1.5-1,2.3c-0.6,0.7-1.3,1.1-2.1,1.1c-0.3,0-0.6-0.1-0.9-0.4c1.4-0.6,2.1-1.7,2.1-3.3c0-0.6-0.2-1-0.5-1.3
		c-0.3-0.3-0.7-0.5-1.2-0.5c-0.8,0-1.6,0.3-2.4,0.9c-0.8,0.6-1.6,1.4-2.3,2.5c-0.7,1.1-1.3,2.2-1.7,3.5c-0.4,1.2-0.6,2.5-0.6,3.7
		c0,1.5,0.4,2.7,1.1,3.6c0.8,0.9,1.7,1.4,3,1.4c1.1,0,2.1-0.3,3.1-0.9c1-0.6,2-1.6,3.1-2.9L121,125z"/>
	<path class="st1" d="M158.8,91.6l3.6-1.5c-1.7,9.6-5.8,19.3-12.5,28.9c-2.7,3.9-5.1,6.8-7.2,8.7c-1.8,1.7-3.5,2.5-5.1,2.5
		c-1.1,0-1.8-0.3-2.3-0.9s-0.7-1.6-0.7-2.9c0-0.4,0-1.1,0.1-1.9l1.8-27.9c0.1-1.6,0.1-2.7,0.1-3.3c0-2.3-0.7-3.4-2-3.4
		c-0.8,0-1.5,0.4-2.1,1.1s-1.2,2-1.9,3.8c-1.1,2.9-1.9,6.1-2.4,9.4l-2.4-1.6c0.6-3.5,1.7-6.7,3.3-9.5c1.6-2.8,3.4-4.2,5.4-4.2
		c1.5,0,2.7,0.6,3.6,1.9s1.3,2.9,1.3,5.1c0,0.9,0,2-0.1,3.2l-1.5,24.9c0,0.8-0.1,1.3-0.1,1.6c0,1.4,0.5,2,1.4,2
		c1.6,0,3.6-1.5,6.2-4.6c1.9-2.3,3.7-4.8,5.3-7.4c1.6-2.6,3-5.3,4.1-7.9c1.1-2.7,2-5.4,2.7-8.2C158.3,96.8,158.7,94.1,158.8,91.6z"
		/>
	<path class="st1" d="M171.7,124.9l0.6,0.5c-1.3,1.7-2.6,2.9-3.9,3.6c-1.3,0.7-2.6,1.1-4.1,1.1c-1.7,0-3.2-0.5-4.2-1.6
		c-1.1-1.1-1.6-2.5-1.6-4.3c0-1.8,0.5-3.7,1.5-5.5c1-1.9,2.3-3.4,3.9-4.6c1.5-1.2,3.1-1.8,4.6-1.8c0.9,0,1.6,0.2,2.2,0.7
		s0.9,1.1,0.9,1.9c0,1.6-0.9,3.1-2.7,4.7c-1.8,1.6-4.3,2.9-7.4,4c0,0.2,0,0.3,0,0.5c0,1.4,0.4,2.5,1.2,3.4c0.8,0.9,1.9,1.3,3.2,1.3
		c1,0,2-0.3,2.9-0.9C169.6,127.1,170.6,126.2,171.7,124.9z M161.3,122.6c2.3-1,4.1-2,5.4-3.2c0.8-0.8,1.5-1.7,2-2.6
		c0.5-0.9,0.8-1.8,0.8-2.5c0-0.9-0.5-1.4-1.4-1.4c-1.4,0-2.8,1-4.3,3.1C162.4,118,161.6,120.2,161.3,122.6z"/>
	<path class="st1" d="M181,111.9l-2.9,10c-0.5,1.6-0.7,2.9-0.7,3.9c0,0.6,0.1,1.2,0.4,1.6c0.2,0.4,0.6,0.6,0.9,0.6
		c0.7,0,1.7-0.7,3.2-2.2l0.5,0.4l-0.3,0.3c-1.2,1.4-2.1,2.3-2.7,2.7s-1.1,0.7-1.6,0.7c-0.7,0-1.2-0.3-1.7-1s-0.7-1.4-0.7-2.4
		c0-0.6,0.1-1.6,0.4-2.9l2-10.6L181,111.9z M181.9,100c0.6,0,1,0.2,1.4,0.5c0.3,0.3,0.5,0.7,0.5,1.3c0,0.5-0.2,0.9-0.6,1.3
		c-0.4,0.3-0.8,0.5-1.3,0.5c-0.5,0-0.9-0.2-1.3-0.5s-0.6-0.8-0.6-1.2c0-0.5,0.2-0.9,0.6-1.2C180.9,100.2,181.4,100,181.9,100z"/>
	<path class="st1" d="M202.2,111.7l-5,18.4c-0.5,2-0.9,3.4-1.3,4.4c-0.4,0.9-0.8,1.8-1.4,2.5c-1,1.5-2.3,2.6-3.7,3.3
		c-1.5,0.8-3,1.2-4.7,1.2c-1.5,0-2.9-0.4-4-1.2l1.7-2c1.4,1.3,2.8,1.9,4.2,1.9c0.9,0,1.8-0.3,2.7-0.8c0.9-0.5,1.6-1.2,2-1.9
		c0.6-0.9,1.1-2.6,1.7-5.1l2.5-10c-2.9,5-5.8,7.6-8.8,7.6c-1.2,0-2.2-0.4-2.9-1.3c-0.7-0.9-1.1-2-1.1-3.3c0-1.9,0.6-3.9,1.7-5.9
		c1.1-2.1,2.6-3.8,4.3-5.1s3.4-2,5.1-2c1.5,0,2.8,0.5,3.8,1.6l0.3-1.1L202.2,111.7z M198.6,115.4c-0.8-1.5-2-2.3-3.3-2.3
		c-1.4,0-2.9,0.7-4.3,2.2c-1.1,1.3-2.1,2.8-2.9,4.7c-0.8,1.9-1.2,3.6-1.2,5.1c0,1,0.2,1.8,0.7,2.4c0.5,0.6,1.1,0.9,2,0.9
		c0.9,0,1.8-0.4,2.9-1.3c1-0.9,2.1-2.1,3.1-3.8c1.2-1.8,2.1-4,2.8-6.5L198.6,115.4z"/>
	<path class="st1" d="M204,129.9l8.6-41.4l3.4-1.5l-9,36.9c0.1-0.1,0.1-0.2,0.1-0.3l0.7-1.6c1.3-2.7,2.9-5,4.8-7
		c1.8-1.8,3.5-2.8,5-2.8c0.8,0,1.5,0.2,2,0.7c0.5,0.5,0.7,1.2,0.7,2c0,0.5-0.1,1.1-0.4,2l-0.3,1.3l-1,3.7l-0.3,1.2
		c-0.3,1.2-0.5,2.1-0.5,2.8c0,0.6,0.1,1.2,0.4,1.6c0.2,0.4,0.6,0.6,0.9,0.6c0.7,0,1.7-0.7,3.2-2.2l0.5,0.4l-0.3,0.3
		c-1.2,1.4-2.1,2.3-2.7,2.7c-0.6,0.5-1.1,0.7-1.6,0.7c-0.7,0-1.2-0.3-1.7-1c-0.5-0.7-0.7-1.4-0.7-2.3c0-0.5,0.1-1.5,0.4-2.9l1.2-6.4
		c0.2-0.9,0.3-1.7,0.3-2.1c0-0.4-0.1-0.7-0.4-1c-0.2-0.2-0.6-0.3-1-0.3c-0.8,0-1.7,0.4-2.8,1.3s-2.1,2.1-3.1,3.6c-1,1.6-2,3.2-2.7,5
		c-0.8,1.8-1.4,3.6-1.7,5.4L204,129.9z"/>
	<path class="st1" d="M260.3,124.5L260.3,124.5c-1.9,1.9-3.8,3.2-5.8,4.1c-2,0.9-4,1.4-6.1,1.4c-1.9,0-3.7-0.5-5.3-1.4
		c-1.6-0.9-2.8-2.3-3.7-4s-1.3-3.6-1.3-5.8c0-2.2,0.4-4.4,1.1-6.6s1.7-4.6,3.1-6.9c1.3-2.3,3-4.5,4.9-6.7c2.6-2.9,5.4-5.3,8.4-7
		c3-1.7,5.7-2.6,8-2.6c1,0,1.9,0.2,2.7,0.6c0.8,0.4,1.4,0.9,1.8,1.6c0.4,0.7,0.6,1.5,0.6,2.5c0,2.5-1.1,4.9-3.4,7.2
		c-2.2,2.3-5,4-8.4,4.9l-1.1-2.3c3.3-1,6-2.4,8.2-4.4c2.2-2,3.3-4,3.3-6c0-0.6-0.2-1.1-0.5-1.6c-0.3-0.5-0.8-0.9-1.4-1.2
		c-0.6-0.3-1.3-0.4-2-0.4c-2,0-4.3,0.7-6.7,2.1c-2.5,1.4-4.8,3.3-6.9,5.7c-1.6,1.8-3,3.8-4.3,6c-1.2,2.2-2.2,4.5-2.9,6.8
		c-0.7,2.3-1,4.6-1,6.6c0,1.6,0.2,3.1,0.6,4.4c0.4,1.3,1,2.5,1.8,3.5s1.7,1.8,2.9,2.3c1.1,0.5,2.3,0.8,3.6,0.8c3.1,0,6.4-1.7,10-5
		l0.1-0.2l1.2-5.2l3.4-1.8l-2,9.1c-0.5,2.2-0.9,3.8-1.2,4.8s-0.8,2-1.5,3.1c-1,1.8-2.4,3.3-4,4.7c-1.6,1.3-3.5,2.4-5.5,3.1
		c-2.1,0.7-4.1,1.1-6.2,1.1c-2.5,0-4.5-0.4-6.1-1.1l1-2.2c2.4,1.3,4.8,1.9,7.4,1.9c1.3,0,2.5-0.2,3.6-0.5s2.2-0.8,3.1-1.4
		s1.7-1.3,2.4-2.2c0.6-0.7,1.1-1.5,1.5-2.3c0.4-0.8,0.8-1.7,1.1-2.9c0.3-1.1,0.7-2.7,1.2-4.6L260.3,124.5z"/>
	<path class="st1" d="M279.9,86.9l-8.5,34.9l-0.3,1.2c-0.3,1.1-0.4,2-0.4,2.8c0,0.6,0.1,1.1,0.4,1.5s0.6,0.6,0.9,0.6
		c0.7,0,1.7-0.7,3.2-2.2l0.5,0.4l-0.3,0.3c-1.2,1.4-2.1,2.3-2.7,2.7s-1.1,0.7-1.6,0.7c-0.6,0-1.2-0.3-1.7-1s-0.7-1.4-0.7-2.3
		c0-0.6,0.1-1.6,0.4-2.9l7.5-35.2L279.9,86.9z"/>
	<path class="st1" d="M295.5,111.7l-3,11.1c-0.3,1.2-0.5,2.2-0.5,2.8c0,0.6,0.1,1.1,0.4,1.6c0.3,0.4,0.6,0.7,1,0.7
		c0.6,0,1.7-0.7,3.1-2.1l0.5,0.4l-0.4,0.4c-1.1,1.2-2,2.1-2.6,2.6s-1.2,0.7-1.6,0.7c-0.7,0-1.3-0.3-1.8-1c-0.5-0.7-0.8-1.5-0.8-2.3
		c0-0.6,0.3-2.1,0.8-4.4l0.3-1.2c-0.8,1.7-1.9,3.4-3.2,5c-2.2,2.7-4.4,4-6.4,4c-1.2,0-2.2-0.4-2.9-1.2c-0.7-0.8-1.1-1.9-1.1-3.3
		c0-1.9,0.6-3.9,1.7-6c1.2-2.1,2.6-3.8,4.3-5.1c1.7-1.3,3.4-2,5-2c1.7,0,3,0.6,3.8,1.8l0.4-1.2L295.5,111.7z M291.8,115.6
		c-0.3-0.8-0.7-1.4-1.3-1.8c-0.6-0.4-1.3-0.7-2.1-0.7c-1,0-2,0.4-3,1.2c-1.1,0.8-2,2-2.9,3.4c-0.7,1.2-1.3,2.4-1.7,3.8
		c-0.5,1.4-0.7,2.5-0.7,3.5c0,1,0.2,1.8,0.6,2.4c0.4,0.6,1,0.9,1.8,0.9c1,0,2-0.4,3.1-1.3c1.1-0.9,2.1-2.1,3.2-3.7
		c0.6-0.9,1.2-1.9,1.5-2.8c0.4-0.9,0.8-2.2,1.2-3.9L291.8,115.6z"/>
	<path class="st1" d="M302,112.4h10.6l0.3,0.7l-0.5,0.5l-3.7,4.1c-2.7,3.1-4.6,5.2-5.4,6.2c-0.9,1-1.7,2.1-2.5,3.2
		c1.1,0.1,2.4,0.2,4.1,0.2c1.4,0,2.8,0,4.3-0.1c0.4,0,1.1,0,2-0.1l-0.3,2.4h-12.8l-0.4-0.8l0.5-0.5c0.3-0.4,0.8-0.8,1.3-1.4
		c0.5-0.6,1.2-1.3,1.9-2.1s1.4-1.5,1.8-2c0.5-0.5,0.8-0.9,1.1-1.2l3-3.5c1.1-1.3,2.1-2.5,2.8-3.4h-8.4L302,112.4z"/>
	<path class="st1" d="M320.6,111.9l-2.9,10c-0.5,1.6-0.7,2.9-0.7,3.9c0,0.6,0.1,1.2,0.4,1.6c0.2,0.4,0.6,0.6,0.9,0.6
		c0.7,0,1.7-0.7,3.2-2.2l0.5,0.4l-0.3,0.3c-1.2,1.4-2.1,2.3-2.7,2.7c-0.6,0.5-1.1,0.7-1.6,0.7c-0.7,0-1.2-0.3-1.7-1
		c-0.5-0.6-0.7-1.4-0.7-2.4c0-0.6,0.1-1.6,0.4-2.9l2-10.6L320.6,111.9z M321.6,100c0.6,0,1,0.2,1.4,0.5c0.3,0.3,0.5,0.7,0.5,1.3
		c0,0.5-0.2,0.9-0.5,1.3c-0.4,0.3-0.8,0.5-1.3,0.5c-0.5,0-0.9-0.2-1.3-0.5s-0.6-0.8-0.6-1.2c0-0.5,0.2-0.9,0.6-1.2
		C320.6,100.2,321,100,321.6,100z"/>
	<path class="st1" d="M324,129.9l3.4-16.8l3.1-1.2l-2.8,11.1c1.8-3.5,3.6-6.2,5.3-8.1c1.8-1.8,3.5-2.8,5.1-2.8
		c0.8,0,1.4,0.2,1.9,0.7c0.5,0.5,0.7,1.2,0.7,2c0,0.5-0.1,1.1-0.4,2l-0.3,1.3l-1,3.7l-0.3,1.2c-0.3,1.2-0.5,2.1-0.5,2.8
		c0,0.6,0.1,1.2,0.4,1.6c0.2,0.4,0.6,0.6,0.9,0.6c0.7,0,1.7-0.7,3.2-2.2l0.5,0.4l-0.3,0.3c-1.2,1.4-2.1,2.3-2.7,2.7
		s-1.1,0.7-1.6,0.7c-0.7,0-1.2-0.3-1.7-1s-0.7-1.4-0.7-2.4c0-0.6,0.1-1.6,0.4-2.9l1.3-6.4c0.2-1,0.3-1.7,0.3-2.1
		c0-0.4-0.1-0.7-0.4-1c-0.2-0.2-0.6-0.3-1-0.3c-1.5,0-3.3,1.5-5.5,4.5c-1.1,1.4-1.9,2.9-2.6,4.3c-0.7,1.4-1.5,3.3-2.3,5.8l-0.3,0.8
		L324,129.9z"/>
	<path class="st1" d="M363.3,111.7l-5,18.4c-0.5,2-0.9,3.4-1.3,4.4c-0.4,0.9-0.8,1.8-1.4,2.5c-1,1.5-2.3,2.6-3.7,3.3
		c-1.5,0.8-3,1.2-4.7,1.2c-1.5,0-2.9-0.4-4-1.2l1.7-2c1.4,1.3,2.8,1.9,4.2,1.9c0.9,0,1.8-0.3,2.7-0.8c0.9-0.5,1.6-1.2,2-1.9
		c0.6-0.9,1.1-2.6,1.8-5.1l2.5-10c-2.9,5-5.8,7.6-8.8,7.6c-1.2,0-2.2-0.4-2.9-1.3c-0.7-0.9-1.1-2-1.1-3.3c0-1.9,0.6-3.9,1.7-5.9
		c1.1-2.1,2.6-3.8,4.3-5.1s3.4-2,5.1-2c1.5,0,2.8,0.5,3.8,1.6l0.3-1.1L363.3,111.7z M359.7,115.4c-0.8-1.5-2-2.3-3.3-2.3
		c-1.4,0-2.9,0.7-4.3,2.2c-1.1,1.3-2.1,2.8-2.9,4.7s-1.2,3.6-1.2,5.1c0,1,0.2,1.8,0.7,2.4s1.1,0.9,2,0.9c0.9,0,1.8-0.4,2.9-1.3
		c1-0.9,2.1-2.1,3.1-3.8c1.2-1.8,2.1-4,2.8-6.5L359.7,115.4z"/>
</g>
</svg>
