<?xml version="1.0" encoding="utf-8"?>
<!-- Generator: Adobe Illustrator 24.1.3, SVG Export Plug-In . SVG Version: 6.00 Build 0)  -->
<svg version="1.1" id="Layer_1" xmlns="http://www.w3.org/2000/svg" xmlns:xlink="http://www.w3.org/1999/xlink" x="0px" y="0px"
	 viewBox="0 0 493.6 235.5" style="enable-background:new 0 0 493.6 235.5;" xml:space="preserve">
<style type="text/css">
	.st0{fill:#FFCC00;}
	.st1{fill:#0000FF;}
	.st2{fill:#FFFFFF;}
	.st3{fill:#000099;}
	.st4{fill:#0000C3;}
	.st5{fill:#C3C3C3;}
	.st6{fill:#DCDCDC;}
	.st7{fill:#999999;}
	.st8{fill:#0000DC;}
	.st9{font-family:'SavoyeLetPlain';}
	.st10{font-size:62px;}
</style>
<ellipse class="st0" cx="242.2" cy="118.5" rx="240.8" ry="117"/>
<ellipse class="st1" cx="251.3" cy="118.5" rx="236.4" ry="102.5"/>
<ellipse class="st2" cx="263.5" cy="118.5" rx="230.1" ry="92"/>
<g>
	<polygon class="st3" points="392.5,133.1 395.8,131.5 414.5,140.9 411.2,142.6 	"/>
	<polygon class="st4" points="392.6,114.4 395.9,112.7 395.8,131.5 392.5,133.1 	"/>
	<polygon class="st5" points="411.2,123.8 414.6,122.1 414.5,140.9 411.2,142.6 	"/>
	<polygon class="st6" points="411.2,123.8 411.2,142.6 392.5,133.1 392.6,114.4 	"/>
	<polygon class="st7" points="392.6,114.4 395.9,112.7 414.6,122.1 411.2,123.8 	"/>
	<polygon class="st3" points="413.8,143.9 417.1,142.2 435.8,151.6 432.5,153.3 	"/>
	<polygon class="st4" points="413.8,125.1 417.2,123.4 417.1,142.2 413.8,143.9 	"/>
	<polygon class="st3" points="392.6,109.8 395.9,108.1 414.6,117.6 411.3,119.3 	"/>
	<polygon class="st4" points="392.6,91.1 396,89.4 395.9,108.1 392.6,109.8 	"/>
	<polygon class="st6" points="432.5,134.6 432.5,153.3 413.8,143.9 413.8,125.1 	"/>
	<polygon class="st7" points="413.8,125.1 417.2,123.4 435.8,132.9 432.5,134.6 	"/>
	<polygon class="st5" points="432.5,134.6 435.8,132.9 435.8,151.6 432.5,153.3 	"/>
	<polygon class="st6" points="411.3,100.5 411.3,119.3 392.6,109.8 392.6,91.1 	"/>
	<polygon class="st5" points="411.3,100.5 414.6,98.8 414.6,117.6 411.3,119.3 	"/>
	<polygon class="st7" points="392.6,91.1 396,89.4 414.6,98.8 411.3,100.5 	"/>
	<polygon class="st3" points="413.9,120.6 417.2,118.9 435.9,128.3 432.5,130 	"/>
	<polygon class="st4" points="413.9,101.8 417.2,100.1 417.2,118.9 413.9,120.6 	"/>
	<polygon class="st6" points="432.6,111.2 432.5,130 413.9,120.6 413.9,101.8 	"/>
	<polygon class="st5" points="432.6,111.2 435.9,109.5 435.9,128.3 432.5,130 	"/>
	<polygon class="st7" points="413.9,101.8 417.2,100.1 435.9,109.5 432.6,111.2 	"/>
	<path class="st8" d="M385.8,80.6l53.6,27.1l-0.2,53.9l-53.6-27.1L385.8,80.6z M432.5,153.3l0.1-18.8l-18.7-9.4l-0.1,18.8
		L432.5,153.3 M432.5,130l0.1-18.8l-18.7-9.4l-0.1,18.8L432.5,130 M411.2,142.6l0.1-18.8l-18.7-9.4l-0.1,18.8L411.2,142.6
		 M411.3,119.3l0.1-18.8l-18.7-9.4l-0.1,18.7L411.3,119.3"/>
	<polygon class="st4" points="439.4,107.7 442.7,106 442.5,159.9 439.2,161.6 	"/>
	<polygon class="st3" points="385.8,80.6 389.1,79 442.7,106 439.4,107.7 	"/>
</g>
<text transform="matrix(1.07 0 0 1 62.25 129.5796)" class="st1 st9 st10">McVeigh Glazing</text>
</svg>
