<svg xmlns="http://www.w3.org/2000/svg" width="20" height="20" viewBox="0 0 20 20">
  <path id="phone-symbol-2" d="M10,1.25A8.75,8.75,0,1,1,1.25,10,8.761,8.761,0,0,1,10,1.25M10,0A10,10,0,1,0,20,10,10,10,0,0,0,10,0Zm5.575,13.344-.056-.171a1.583,1.583,0,0,0-.967-.913l-1.478-.4a1.449,1.449,0,0,0-1.266.332l-.535.535A5.678,5.678,0,0,1,7.28,8.728l.535-.535a1.45,1.45,0,0,0,.331-1.266l-.4-1.478a1.582,1.582,0,0,0-.914-.967L6.66,4.426a1.338,1.338,0,0,0-1.25.3l-.8.8a1.49,1.49,0,0,0-.234.549,9.444,9.444,0,0,0,9.53,9.552,1.474,1.474,0,0,0,.575-.232l.8-.8A1.339,1.339,0,0,0,15.575,13.344Z" fill="#fff"/>
</svg>
