<svg xmlns="http://www.w3.org/2000/svg" width="21.338" height="21.338" viewBox="0 0 21.338 21.338">
  <path id="phone-symbol-2" d="M10.669,1.334a9.336,9.336,0,1,1-9.336,9.336,9.347,9.347,0,0,1,9.336-9.336m0-1.334A10.669,10.669,0,1,0,21.338,10.669,10.67,10.67,0,0,0,10.669,0Zm5.948,14.236-.06-.182a1.689,1.689,0,0,0-1.031-.974l-1.577-.431A1.545,1.545,0,0,0,12.6,13l-.57.57a6.059,6.059,0,0,1-4.26-4.261l.57-.57a1.547,1.547,0,0,0,.353-1.351l-.43-1.577a1.688,1.688,0,0,0-.975-1.031l-.18-.06a1.427,1.427,0,0,0-1.334.315l-.854.854a1.59,1.59,0,0,0-.25.586A10.076,10.076,0,0,0,14.836,16.669a1.573,1.573,0,0,0,.613-.247l.854-.854A1.429,1.429,0,0,0,16.617,14.236Z" fill="#fff"/>
</svg>
