<svg xmlns="http://www.w3.org/2000/svg" width="34.012" height="34.012" viewBox="0 0 34.012 34.012">
  <path id="phone-symbol-2" d="M17.006,2.126a14.88,14.88,0,1,1-14.88,14.88,14.9,14.9,0,0,1,14.88-14.88m0-2.126A17.006,17.006,0,1,0,34.012,17.006,17.007,17.007,0,0,0,17.006,0Zm9.481,22.692-.1-.291a2.693,2.693,0,0,0-1.644-1.553l-2.514-.687a2.463,2.463,0,0,0-2.153.565l-.909.909a9.657,9.657,0,0,1-6.79-6.792l.909-.909a2.465,2.465,0,0,0,.563-2.153l-.685-2.514a2.691,2.691,0,0,0-1.555-1.644l-.287-.1a2.275,2.275,0,0,0-2.126.5L7.839,9.391a2.535,2.535,0,0,0-.4.934A16.06,16.06,0,0,0,23.647,26.569a2.507,2.507,0,0,0,.978-.394l1.362-1.362A2.277,2.277,0,0,0,26.486,22.692Z" fill="#fff"/>
</svg>
